{
  "title": "Formula.1.2016x16.Malaysia.Qualifying.SkyF1HD.1080p50-smcgill196",
  "uid": 15928588,
  "size": 7644503163,
  "categoryP": "video",
  "categoryS": "other",
  "magnet": "?xt=urn:btih:0b0b17443e13d7c13184b44c595861072e0555e2&amp;dn=Formula.1.2016x16.Malaysia.Qualifying.SkyF1HD.1080p50-smcgill196&amp;tr=udp%3A%2F%2Ftracker.leechers-paradise.org%3A6969&amp;tr=udp%3A%2F%2Fzer0day.ch%3A1337&amp;tr=udp%3A%2F%2Fopen.demonii.com%3A1337&amp;tr=udp%3A%2F%2Ftracker.coppersurfer.tk%3A6969&amp;tr=udp%3A%2F%2Fexodus.desync.com%3A6969",
  "seeders": 38,
  "leechers": 12,
  "uploader": "GaYoonFan",
  "files": 3,
  "time": 1475334675,
  "description": "Formula.1.2016x16.Malaysia.Qualifying.SkyF1HD.1080p50-smcgill1969:\r\n\r\nQualifying from the Malaysian Grand Prix at Sepang International Circuit.\r\n\r\nVideo\r\n ID : 1\r\n Format : AVC\r\n Format/Info : Advanced Video Codec\r\n Format profile :   \r\n Format settings, CABAC : Yes\r\n Format settings, ReFrames : 2 frames\r\n Format settings, GOP : M=3, N=24\r\n Codec ID : avc1\r\n Codec ID/Info : Advanced Video Coding\r\n Duration : 55mn 3s\r\n Duration_FirstFrame : 13ms\r\n Bit rate mode : Variable\r\n Bit rate : 5 997 Kbps\r\n Maximum bit rate : 12.4 Mbps\r\n Width : 1 920 pixels\r\n Height : 1 080 pixels\r\n Original height : 1 088 pixels\r\n Display aspect ratio : 16:9\r\n Original display aspect ratio : 16:9\r\n Frame rate mode : Constant\r\n Frame rate : 50.000 fps\r\n Color space : YUV\r\n Chroma subsampling : 4:2:0\r\n Bit depth : 8 bits\r\n Scan type : Progressive\r\n Bits/(Pixel*Frame) : 0.058\r\n Stream size : 2.31 GiB (96%)\r\n Language : English\r\n Encoded date : UTC 2016-10-01 07:54:57\r\n Tagged date : UTC 2016-10-01 08:55:12\r\n\r\n Audio\r\n ID : 2\r\n Format : AAC\r\n Format/Info : Advanced Audio Codec\r\n Format profile : LC\r\n Codec ID : 40\r\n Duration : 55mn 3s\r\n Source duration : 55mn 3s\r\n Bit rate mode : Constant\r\n Bit rate : 256 Kbps\r\n Channel(s) : 2 channels\r\n Channel positions : Front: L R\r\n Sampling rate : 48.0 KHz\r\n Frame rate : 46.875 fps (1024 spf)\r\n Compression mode : Lossy\r\n Stream size : 99.8 MiB (4%)\r\n Source stream size : 99.8 MiB (4%)\r\n Language : English\r\n Encoded date : UTC 2016-10-01 07:54:57\r\n Tagged date : UTC 2016-10-01 08:55:12",
  "parsed": {
    "xt": "urn:btih:0b0b17443e13d7c13184b44c595861072e0555e2",
    "dn": "Formula.1.2016x16.Malaysia.Qualifying.SkyF1HD.1080p50-smcgill196",
    "tr": [
      "udp://exodus.desync.com:6969",
      "udp://open.demonii.com:1337",
      "udp://tracker.coppersurfer.tk:6969",
      "udp://tracker.leechers-paradise.org:6969",
      "udp://zer0day.ch:1337"
    ],
    "infoHash": "0b0b17443e13d7c13184b44c595861072e0555e2",
    "infoHashBuffer": {
      "type": "Buffer",
      "data": [
        11,
        11,
        23,
        68,
        62,
        19,
        215,
        193,
        49,
        132,
        180,
        76,
        89,
        88,
        97,
        7,
        46,
        5,
        85,
        226
      ]
    },
    "name": "Formula.1.2016x16.Malaysia.Qualifying.SkyF1HD.1080p50-smcgill196",
    "announce": [
      "udp://exodus.desync.com:6969",
      "udp://open.demonii.com:1337",
      "udp://tracker.coppersurfer.tk:6969",
      "udp://tracker.leechers-paradise.org:6969",
      "udp://zer0day.ch:1337"
    ],
    "urlList": []
  },
  "previous": 41,
  "peers": 18,
  "last_updated": "2016-12-26T15:49:36.727Z"
}